<svg width="512" height="512" viewBox="0 0 512 512" fill="none" xmlns="http://www.w3.org/2000/svg">
<path d="M256.005 12.733C258.891 12.732 261.777 11.966 264.377 10.435C272.375 5.726 286.098 0 305.547 0C342.866 0 371.614 16.516 371.614 16.516L355.098 33.032C372.85 37.766 382.969 40.602 402.467 50.818C471.036 86.745 503.743 165.161 503.743 165.161H470.711C512 231.226 512 322.065 512 322.065L487.226 313.807C487.226 313.807 487.226 388.13 454.194 437.678L429.42 421.162C429.42 421.162 404.646 462.452 363.355 487.227L346.839 470.711C346.839 470.711 305.549 503.743 256 512.001C206.452 503.743 165.161 470.711 165.161 470.711L148.645 487.227C107.355 462.453 82.58 421.162 82.58 421.162L57.806 437.678C24.775 388.13 24.775 313.807 24.775 313.807L0.000976562 322.065C0.000976562 322.065 0.000976562 231.226 41.291 165.162H8.25898C8.25898 165.162 40.966 86.746 109.535 50.819C129.033 40.603 139.152 37.767 156.904 33.033L140.388 16.517C140.388 16.517 169.135 0.001 206.455 0.001C225.904 0.001 239.627 5.727 247.625 10.437C250.225 11.968 253.111 12.734 255.997 12.735" fill="#D26437"/>
<path d="M187.22 91.077C187.22 91.077 211.097 42.323 251.281 11.98C250.026 11.601 248.79 11.122 247.624 10.436C239.627 5.726 225.904 0 206.455 0C169.136 0 140.388 16.516 140.388 16.516L156.904 33.032C139.152 37.766 129.033 40.602 109.535 50.818C40.966 86.745 8.25898 165.161 8.25898 165.161H41.291C0.000976562 231.226 0.000976562 322.065 0.000976562 322.065L24.775 313.807C24.775 313.807 24.775 388.13 57.807 437.678L82.581 421.162C82.581 421.162 107.355 462.452 148.646 487.227L165.162 470.711C165.162 470.711 206.452 503.743 256.001 512.001C256.001 512 196.13 487.226 187.22 91.077Z" fill="#B44632"/>
<path d="M410.232 50.1109C429.778 46.3209 447.686 62.2039 445.799 82.0239C443.456 106.63 425.377 150.021 400.603 175.57L321.033 95.4839C351.522 71.2819 389.392 54.1519 410.232 50.1109Z" fill="#EBAF4B"/>
<path d="M342.607 117.198C367.963 97.8161 405.448 72.3191 415.83 71.2761C427.762 70.0771 435.201 86.5361 430.536 104.299C426.486 119.721 411.038 148.009 395.66 170.595L342.607 117.198Z" fill="#E18C46"/>
<path d="M101.77 50.1109C82.2239 46.3209 64.3159 62.2039 66.2029 82.0239C68.5459 106.63 86.6249 150.021 111.399 175.57L190.969 95.4839C160.48 71.2819 122.61 54.1519 101.77 50.1109Z" fill="#EBAF4B"/>
<path d="M169.395 117.198C144.039 97.8161 106.554 72.3191 96.1722 71.2761C84.2402 70.0771 76.8012 86.5361 81.4662 104.299C85.5162 119.721 100.964 148.009 116.342 170.595L169.395 117.198Z" fill="#E18C46"/>
<path d="M355.098 99.0971C322.505 73.7471 256.001 115.613 256.001 115.613C256.001 115.613 189.497 73.7471 156.904 99.0971C82.5812 156.903 66.0652 322.065 74.3232 355.097C80.3322 379.131 132.129 421.162 189.936 437.678H322.065C379.871 421.162 431.669 379.132 437.678 355.097C445.936 322.065 429.42 156.903 355.098 99.0971Z" fill="#F0B400"/>
<path d="M125.236 403.816C118.893 364.209 133.894 188.473 187.22 91.0771C176.009 90.5371 165.321 92.5501 156.904 99.0971C82.5812 156.903 66.0652 322.065 74.3232 355.097C77.9402 369.566 98.2122 390.536 126.34 408.555C125.916 406.944 125.478 405.326 125.236 403.816Z" fill="#EBAF4B"/>
<path d="M437.678 313.701C431.669 337.735 379.872 379.766 322.065 396.282H189.936C132.13 379.766 80.3322 337.736 74.3232 313.701C73.9472 312.2 73.6432 310.338 73.3732 308.313C71.7382 329.801 72.2272 346.714 74.3232 355.097C80.3322 379.131 132.129 421.162 189.936 437.678H322.065C379.871 421.162 431.669 379.132 437.678 355.097C439.774 346.714 440.263 329.801 438.628 308.313C438.359 310.337 438.054 312.199 437.678 313.701Z" fill="#FAEBC8"/>
<path d="M187.462 424.27C191.749 450.606 214.601 470.71 242.148 470.71H269.853C297.286 470.71 320.064 450.772 324.486 424.597L256.006 412.904L187.462 424.27Z" fill="#F5DCB4"/>
<path d="M301.42 346.839C282.265 346.839 265.5 354.581 256.001 366.195C246.502 354.581 229.736 346.839 210.582 346.839C180.937 346.839 156.905 365.325 156.905 388.129C156.905 410.933 180.937 429.419 210.582 429.419C229.737 429.419 246.502 421.677 256.001 410.063C265.5 421.677 282.266 429.419 301.42 429.419C331.065 429.419 355.097 410.933 355.097 388.129C355.097 365.325 331.066 346.839 301.42 346.839Z" fill="#FAEBC8"/>
<path d="M298.017 437.411C283.59 437.411 270.001 432.629 258.719 423.584C257.122 422.302 254.888 422.302 253.275 423.584C242.001 432.628 228.412 437.411 213.985 437.411C179.13 437.411 150.775 408.851 150.775 373.746C150.775 369.186 154.469 365.488 159.033 365.488C163.597 365.488 167.291 369.186 167.291 373.746C167.291 399.746 188.235 420.895 213.985 420.895C224.614 420.895 234.63 417.371 242.945 410.697C250.639 404.536 261.372 404.536 269.05 410.697C277.373 417.37 287.389 420.895 298.018 420.895C323.768 420.895 344.712 399.746 344.712 373.746C344.712 369.186 348.406 365.488 352.97 365.488C357.534 365.488 361.228 369.186 361.228 373.746C361.227 408.851 332.872 437.411 298.017 437.411Z" fill="#D4AF91"/>
<path d="M211.445 361.269L228.986 375.894C244.634 388.94 267.369 388.94 283.016 375.894L300.557 361.27C308.328 354.791 303.797 342.142 293.68 342.142C271.277 342.142 240.726 342.142 218.322 342.141C208.205 342.141 203.674 354.79 211.445 361.269Z" fill="#5D5360"/>
<path d="M256.001 214.71C251.436 214.71 247.743 211.012 247.743 206.452V139.033C247.743 134.473 251.437 130.775 256.001 130.775C260.565 130.775 264.259 134.473 264.259 139.033V206.452C264.259 211.012 260.566 214.71 256.001 214.71Z" fill="#FFDC64"/>
<path d="M173.42 297.29C159.738 297.29 148.646 286.198 148.646 272.516V264.258C148.646 250.576 159.738 239.484 173.42 239.484C187.102 239.484 198.194 250.576 198.194 264.258V272.516C198.195 286.199 187.103 297.29 173.42 297.29Z" fill="#4B3F4E"/>
<path d="M173.42 239.484V268.387C173.42 275.228 178.966 280.774 185.807 280.774C192.648 280.774 198.194 275.228 198.194 268.387V264.258C198.195 250.576 187.103 239.484 173.42 239.484Z" fill="#5D5360"/>
<path d="M173.421 264.258C177.982 264.258 181.679 260.561 181.679 256C181.679 251.439 177.982 247.742 173.421 247.742C168.86 247.742 165.163 251.439 165.163 256C165.163 260.561 168.86 264.258 173.421 264.258Z" fill="white"/>
<path d="M338.582 297.29C324.9 297.29 313.808 286.198 313.808 272.516V264.258C313.808 250.576 324.9 239.484 338.582 239.484C352.264 239.484 363.356 250.576 363.356 264.258V272.516C363.356 286.199 352.264 297.29 338.582 297.29Z" fill="#4B3F4E"/>
<path d="M338.582 239.484V268.387C338.582 275.228 344.128 280.774 350.969 280.774C357.81 280.774 363.356 275.228 363.356 268.387V264.258C363.356 250.576 352.264 239.484 338.582 239.484Z" fill="#5D5360"/>
<path d="M338.581 264.258C343.142 264.258 346.839 260.561 346.839 256C346.839 251.439 343.142 247.742 338.581 247.742C334.02 247.742 330.323 251.439 330.323 256C330.323 260.561 334.02 264.258 338.581 264.258Z" fill="white"/>
<path d="M260.953 374.633L243.411 354.46C240.487 351.097 239.31 346.531 239.511 342.141C232.038 342.141 224.821 342.141 218.322 342.141C208.205 342.141 203.674 354.79 211.444 361.269L228.985 375.894C240.927 385.851 256.978 388.151 270.876 382.91C267.386 380.768 264.009 378.147 260.953 374.633Z" fill="#4B3F4E"/>
<path d="M74.3241 313.701C73.9481 312.2 73.6441 310.338 73.3741 308.313C71.7391 329.801 72.2281 346.714 74.3241 355.097C77.9411 369.566 98.2131 390.535 126.341 408.555C125.917 406.944 125.479 405.326 125.237 403.816C123.977 395.95 123.576 382.653 124.133 365.728C97.1591 348.036 77.8451 327.788 74.3241 313.701Z" fill="#F5DCB4"/>
</svg>
