<svg width="512" height="512" viewBox="0 0 512 512" fill="none" xmlns="http://www.w3.org/2000/svg">
<g clip-path="url(#clip0)">
<path fill-rule="evenodd" clip-rule="evenodd" d="M220.859 58.0044H440C448.801 58.0044 456 50.8013 456 42.0044C456 33.2036 448.801 26.0044 440 26.0044H72C63.1992 26.0044 56 33.2036 56 42.0044C56 50.8013 63.1992 58.0044 72 58.0044H220.859Z" fill="#F0F0F0"/>
<path fill-rule="evenodd" clip-rule="evenodd" d="M80.2852 153.29L121.617 58.0044H72L10 153.29V170.86C10 190.188 25.8125 206 45.1445 206C64.4727 206 80.2852 190.188 80.2852 170.86V153.29Z" fill="#C1734C"/>
<path fill-rule="evenodd" clip-rule="evenodd" d="M171.238 58.0044L150.57 153.29V170.86C150.57 190.188 166.387 206 185.715 206C205.043 206 220.859 190.188 220.859 170.86V58.0044H171.238Z" fill="#C1734C"/>
<path fill-rule="evenodd" clip-rule="evenodd" d="M291.145 58.0044V170.86C291.145 190.188 306.957 206 326.285 206C345.613 206 361.43 190.188 361.43 170.86V153.29L340.762 58.0044H291.145Z" fill="#C1734C"/>
<path fill-rule="evenodd" clip-rule="evenodd" d="M390.383 58.0044L431.715 153.29V170.86C431.715 190.188 447.527 206 466.855 206C486.184 206 502 190.188 502 170.86V153.29L440 58.0044H390.383Z" fill="#C1734C"/>
<path fill-rule="evenodd" clip-rule="evenodd" d="M431.715 170.86C431.715 190.188 415.902 206 396.57 206C377.242 206 361.43 190.188 361.43 170.86C361.43 190.188 345.613 206 326.285 206C306.957 206 291.145 190.188 291.145 170.86C291.145 190.188 275.328 206 256 206C236.672 206 220.859 190.188 220.859 170.86C220.859 190.188 205.043 206 185.715 206C166.387 206 150.57 190.188 150.57 170.86C150.57 190.188 134.758 206 115.43 206C96.1016 206 80.2852 190.188 80.2852 170.86C80.2852 190.188 64.4727 206 45.1445 206V486H466.855V206C447.527 206 431.715 190.188 431.715 170.86ZM215.145 245.75V485.75H75.1445V245.75H215.145ZM378.258 342.762H394.258C408.559 342.762 420.258 354.461 420.258 368.762C420.258 383.059 408.559 394.762 394.258 394.762H378.258C378.258 423.36 354.855 446.758 326.258 446.758C297.656 446.758 274.258 423.36 274.258 394.762V342.762H378.258Z" fill="#F0F0F0"/>
<path fill-rule="evenodd" clip-rule="evenodd" d="M420.258 368.762C420.258 354.461 408.559 342.762 394.258 342.762H378.258V394.762H394.258C408.559 394.762 420.258 383.059 420.258 368.762Z" fill="#F0F0F0"/>
<path fill-rule="evenodd" clip-rule="evenodd" d="M378.258 394.762V342.762H274.258V394.762C274.258 423.36 297.656 446.758 326.258 446.758C354.855 446.758 378.258 423.36 378.258 394.762Z" fill="#C1734C"/>
<path fill-rule="evenodd" clip-rule="evenodd" d="M215.145 485.747V245.75H75.1445V485.747H215.145Z" fill="#C1734C"/>
<path d="M274.257 436.758C268.738 436.758 264.257 441.238 264.257 446.758C264.257 452.281 268.738 456.758 274.257 456.758H378.257C383.777 456.758 388.257 452.281 388.257 446.758C388.257 441.238 383.777 436.758 378.257 436.758H371.812C379.867 428.027 385.445 416.992 387.437 404.758H394.257C414.109 404.758 430.257 388.609 430.257 368.758C430.257 348.906 414.109 332.758 394.257 332.758H274.257C268.734 332.758 264.257 337.238 264.257 342.758V394.758C264.257 410.949 270.503 425.703 280.703 436.758H274.257ZM410.257 368.758C410.257 377.582 403.078 384.758 394.257 384.758H388.257V352.758H394.257C403.078 352.758 410.257 359.938 410.257 368.758ZM284.257 394.758V352.758H368.257V394.758C368.257 417.918 349.417 436.758 326.257 436.758C303.097 436.758 284.257 417.918 284.257 394.758Z" fill="black"/>
<path d="M511.999 170.86V153.289C511.999 153.192 511.987 153.098 511.983 153.004C511.979 152.789 511.972 152.574 511.952 152.36C511.94 152.223 511.921 152.094 511.901 151.961C511.878 151.77 511.851 151.578 511.815 151.387C511.784 151.239 511.749 151.09 511.714 150.942C511.671 150.774 511.632 150.61 511.585 150.446C511.534 150.278 511.476 150.114 511.417 149.949C511.366 149.809 511.319 149.668 511.265 149.528C511.19 149.344 511.104 149.168 511.022 148.992C510.964 148.875 510.913 148.754 510.851 148.637C510.749 148.446 510.64 148.266 510.526 148.082C510.476 148 510.436 147.914 510.382 147.832L455.222 63.059C461.745 58.3324 465.999 50.6567 465.999 42.0043C465.999 27.6645 454.335 16.0005 439.999 16.0005H172C166.476 16.0005 162 20.4809 162 26.0005C162 31.5239 166.476 36.0004 172 36.0004H439.999C443.253 36.0004 445.999 38.7504 445.999 42.0043C445.999 45.2543 443.253 48.0043 439.999 48.0043H390.366C390.32 48.0043 390.273 48.0004 390.23 48.0043H340.722C340.687 48.0043 340.652 48.0004 340.617 48.0043H171.379C171.347 48.0043 171.32 48.0043 171.293 48.0043H121.75C121.722 48.0043 121.691 48.0043 121.664 48.0043H71.9999C68.746 48.0043 65.9999 45.2543 65.9999 42.0043C65.9999 38.7504 68.746 36.0004 71.9999 36.0004H103.035C108.554 36.0004 113.035 31.5239 113.035 26.0005C113.035 20.477 108.554 16.0005 103.035 16.0005H71.9999C57.6639 16.0005 45.9999 27.6645 45.9999 42.0004C45.9999 50.6567 50.2538 58.3324 56.7772 63.059L1.61718 147.832C1.5664 147.914 1.52343 148 1.47265 148.082C1.35937 148.266 1.25 148.446 1.14844 148.637C1.08594 148.754 1.03515 148.875 0.97656 148.996C0.894529 149.172 0.808592 149.344 0.73828 149.524C0.679687 149.668 0.632811 149.809 0.578124 149.953C0.523437 150.117 0.464843 150.278 0.414061 150.442C0.367187 150.61 0.324218 150.774 0.285155 150.942C0.25 151.09 0.214844 151.235 0.183594 151.387C0.148438 151.578 0.121094 151.77 0.097656 151.961C0.0781248 152.094 0.0585937 152.223 0.0468749 152.356C0.0234375 152.571 0.0195312 152.785 0.0117188 153.004C0.0117188 153.098 0 153.192 0 153.289V170.86C0 192.313 15.0508 210.309 35.1445 214.871V476H9.99998C4.47655 476 0 480.476 0 486C0 491.523 4.47655 496 9.99998 496H501.999C507.522 496 511.999 491.523 511.999 486C511.999 480.476 507.522 476 501.999 476H476.858V214.871C496.948 210.305 511.999 192.313 511.999 170.86ZM466.855 196C452.991 196 441.714 184.723 441.714 170.856V153.285C441.714 153.281 441.714 153.274 441.714 153.266C441.714 152.953 441.694 152.641 441.663 152.324C441.663 152.301 441.663 152.281 441.659 152.258C441.636 152.02 441.593 151.785 441.554 151.547C441.534 151.449 441.526 151.348 441.507 151.254C441.487 151.164 441.46 151.078 441.437 150.992C441.382 150.75 441.323 150.504 441.249 150.27C441.241 150.254 441.237 150.242 441.234 150.227C441.132 149.918 441.019 149.617 440.894 149.321C440.89 149.317 440.89 149.313 440.886 149.305L405.616 68.0004H434.573L491.999 156.254V170.856C491.999 184.723 480.722 196 466.855 196ZM90.285 155.363L128.179 68.0043H158.836L140.801 151.168C140.797 151.176 140.797 151.184 140.797 151.192C140.746 151.418 140.715 151.645 140.683 151.875C140.668 151.988 140.644 152.106 140.629 152.219C140.617 152.352 140.613 152.488 140.605 152.621C140.59 152.832 140.574 153.043 140.574 153.254C140.574 153.266 140.57 153.278 140.57 153.289V170.86C140.57 184.723 129.293 196 115.429 196C101.566 196 90.285 184.723 90.285 170.86V155.363ZM160.57 154.356L179.3 68.0043H210.855V170.86C210.855 184.723 199.578 196 185.714 196C171.851 196 160.57 184.723 160.57 170.86V154.356ZM230.855 153.289V68.0004H281.14V170.856C281.14 184.719 269.863 196 255.999 196C242.136 196 230.855 184.723 230.855 170.856V153.289ZM301.144 153.289V68.0004H332.699L351.429 154.356V170.856C351.429 184.719 340.148 196 326.285 196C312.421 196 301.14 184.723 301.14 170.856V153.289H301.144ZM371.425 153.254C371.425 153.043 371.409 152.832 371.394 152.617C371.386 152.485 371.382 152.352 371.37 152.219C371.355 152.102 371.331 151.981 371.316 151.863C371.284 151.641 371.253 151.414 371.206 151.196C371.202 151.188 371.202 151.176 371.202 151.168L353.163 68.0043H383.82L421.714 155.363V170.86C421.714 184.723 410.433 196.004 396.57 196.004C382.706 196.004 371.425 184.723 371.425 170.86V153.289C371.429 153.274 371.425 153.266 371.425 153.254ZM20 170.86V156.254L77.4256 68.0043H106.383L71.1131 149.309C71.1092 149.313 71.1092 149.321 71.1053 149.324C70.9803 149.621 70.8671 149.922 70.7655 150.231C70.7616 150.242 70.7577 150.258 70.7499 150.27C70.6756 150.508 70.6171 150.75 70.5624 150.996C70.5389 151.082 70.5116 151.168 70.4921 151.254C70.4725 151.352 70.4647 151.453 70.4452 151.551C70.4061 151.789 70.3631 152.024 70.3397 152.262C70.3358 152.281 70.3358 152.305 70.3358 152.328C70.3046 152.641 70.2889 152.957 70.285 153.27V153.289V170.86C70.285 184.723 59.0077 196.004 45.1405 196.004C31.2773 196 20 184.723 20 170.86ZM55.1444 214.871C65.2108 212.582 74.0116 206.93 80.285 199.149C88.5662 209.414 101.242 216 115.429 216C129.617 216 142.289 209.414 150.574 199.149C158.855 209.414 171.527 216 185.714 216C199.902 216 212.574 209.414 220.859 199.149C229.136 209.414 241.812 216 255.999 216C270.187 216 282.863 209.414 291.144 199.149C299.425 209.414 312.097 216 326.285 216C340.472 216 353.148 209.414 361.429 199.149C369.71 209.414 382.382 216 396.57 216C410.757 216 423.433 209.414 431.714 199.149C437.987 206.926 446.788 212.582 456.858 214.871V476H225.144V245.75C225.144 240.227 220.668 235.75 215.144 235.75H75.1444C69.621 235.75 65.1444 240.227 65.1444 245.75V476H55.1444V214.871ZM205.144 332.758H194.109C188.586 332.758 184.109 337.238 184.109 342.758C184.109 348.281 188.586 352.758 194.109 352.758H205.144V475.746H85.1444V255.746H205.144V332.758Z" fill="black"/>
</g>
<defs>
<clipPath id="clip0">
<rect width="512" height="512" fill="white"/>
</clipPath>
</defs>
</svg>
