<svg width="512" height="512" viewBox="0 0 512 512" fill="none" xmlns="http://www.w3.org/2000/svg">
<g clip-path="url(#clip0)">
<path d="M504.853 278.06C504.102 262.86 498.453 248.299 489.173 236.219C468.244 208.971 464.164 187.338 464.164 187.338C447.732 144.281 433.124 115.592 422.388 97.3839C411.091 78.2631 391.555 65.3835 369.523 62.5516C325.218 56.8239 186.75 56.8239 142.446 62.5516C120.429 65.4 100.893 78.2796 89.596 97.3839C78.8594 115.592 64.2679 144.281 47.8191 187.338C47.8191 187.338 43.7394 208.971 22.8108 236.219C13.5468 248.299 7.88207 262.86 7.14677 278.06C5.56273 311.037 15.1154 318.285 23.6595 392.91C24.3319 398.783 29.2913 403.198 35.2118 403.198H476.806C482.726 403.198 487.686 398.766 488.358 392.91C490.758 371.982 497.879 329.533 497.879 329.533C504.117 308.429 505.477 291.228 504.853 278.06Z" fill="#FF5757"/>
<path d="M454.868 185.611C441.908 153.178 428.691 124.857 415.539 102.281C405.571 85.208 387.987 73.2886 368.531 70.6805C324.129 64.7919 187.567 64.8404 143.485 70.6805C124.029 73.2886 106.444 85.2091 96.4758 102.281C83.1476 125.145 69.7555 153.85 56.9873 185.611C189.406 196.027 322.433 196.027 454.868 185.611Z" fill="#777777"/>
<path d="M436.068 223.115C431.011 224.699 426.308 226.923 422.371 229.131C415.203 233.132 407.843 236.86 400.163 239.772C387.427 244.605 385.266 251.82 385.266 251.82C384.882 252.316 384.514 252.812 384.162 253.324C374.498 267.676 387.185 286.78 404.322 284.349C429.107 280.844 449.523 273.661 459.891 269.5C465.827 267.116 470.467 262.157 471.987 255.932C472.131 255.34 472.259 254.748 472.371 254.172C476.18 233.628 456.02 216.891 436.068 223.115Z" fill="white"/>
<path d="M462.548 338.11H434.979C430.836 338.11 428.756 343.118 431.683 346.062L459.252 373.631C462.18 376.559 467.204 374.479 467.204 370.335V342.766C467.203 340.19 465.123 338.11 462.548 338.11Z" fill="#FFE21F"/>
<path d="M488.356 392.879C487.683 398.767 482.708 403.199 476.788 403.199H423.747V433.983C423.747 444.88 432.578 453.728 443.491 453.728H476.805C487.701 453.728 496.549 444.896 496.549 433.983V337.613C494.357 350.957 490.101 377.63 488.356 392.879Z" fill="#454545"/>
<path d="M511.622 164.058C510.021 156.889 503.286 152.026 495.941 152.026H482.629C474.1 152.026 467.188 158.938 467.188 167.466V176.954H460.132L464.18 186.57H479.701C487.733 186.57 495.685 184.842 502.982 181.499C509.557 178.49 513.238 171.29 511.622 164.058Z" fill="#ED6262"/>
<path d="M444.803 267.388C455.522 267.388 464.212 258.699 464.212 247.98C464.212 237.261 455.522 228.571 444.803 228.571C434.084 228.571 425.395 237.261 425.395 247.98C425.395 258.699 434.084 267.388 444.803 267.388Z" fill="#E95353"/>
<path d="M405.762 277.548C413.636 277.548 420.018 271.166 420.018 263.292C420.018 255.418 413.636 249.036 405.762 249.036C397.889 249.036 391.506 255.418 391.506 263.292C391.506 271.166 397.889 277.548 405.762 277.548Z" fill="#E95353"/>
<path d="M368.818 263.309L346.529 302.125H165.47L143.181 263.309H368.818Z" fill="#6F6F6F"/>
<path d="M127.821 253.324C127.485 252.812 127.117 252.316 126.716 251.82C126.716 251.82 124.556 244.604 111.82 239.772C104.14 236.86 96.7951 233.132 89.6113 229.131C85.6594 226.923 80.9713 224.699 75.9149 223.115C55.9784 216.875 35.8026 233.627 39.5946 254.172C39.707 254.764 39.8348 255.34 39.9627 255.932C41.4828 262.156 46.1225 267.116 52.0585 269.5C62.4269 273.661 82.843 280.844 107.644 284.349C124.796 286.78 137.485 267.676 127.821 253.324Z" fill="white"/>
<path d="M77.0196 338.11H49.4506C46.8745 338.11 44.7944 340.19 44.7944 342.766V370.335C44.7944 374.479 49.8188 376.559 52.7466 373.631L80.3156 346.062C83.2434 343.134 81.1633 338.11 77.0196 338.11Z" fill="#FFE21F"/>
<path d="M439.555 386.223C410.851 336.558 377.842 338.11 377.842 338.11H134.141C134.141 338.11 101.148 336.558 72.4271 386.223H22.8105L23.419 392.623C23.979 398.639 29.0033 403.2 35.0188 403.2H476.981C482.997 403.2 488.021 398.639 488.582 392.624L489.19 386.224L439.555 386.223Z" fill="#777777"/>
<path d="M35.2109 403.215C29.2904 403.215 24.3145 398.767 23.6431 392.895C21.8992 377.647 17.6267 350.959 15.4507 337.63V434.001C15.4507 444.897 24.2825 453.745 35.1954 453.745H68.5076C79.404 453.745 88.2523 444.914 88.2523 434.001V403.216H35.2109V403.215Z" fill="#454545"/>
<path d="M44.7942 176.954V167.466C44.7942 158.937 37.8816 152.026 29.3695 152.026H16.0578C8.71413 152.026 1.97786 156.89 0.377322 164.058C-1.23868 171.274 2.4574 178.49 9.01732 181.482C16.329 184.827 24.2657 186.554 32.2983 186.554H47.819L51.8667 176.937H44.7942V176.954Z" fill="#ED6262"/>
<path d="M67.1791 267.388C77.8981 267.388 86.5876 258.699 86.5876 247.98C86.5876 237.261 77.8981 228.571 67.1791 228.571C56.46 228.571 47.7705 237.261 47.7705 247.98C47.7705 258.699 56.46 267.388 67.1791 267.388Z" fill="#E95353"/>
<path d="M106.252 277.548C114.125 277.548 120.508 271.166 120.508 263.292C120.508 255.418 114.125 249.036 106.252 249.036C98.3784 249.036 91.9956 255.418 91.9956 263.292C91.9956 271.166 98.3784 277.548 106.252 277.548Z" fill="#E95353"/>
<path d="M359.186 351.694H152.813C149.581 351.694 146.973 354.317 146.973 357.534C146.973 360.766 149.581 363.374 152.813 363.374H359.169C362.401 363.374 365.009 360.751 365.009 357.534C365.026 354.302 362.401 351.694 359.186 351.694Z" fill="#6F6F6F"/>
<path d="M359.186 375.007H152.813C149.581 375.007 146.973 377.63 146.973 380.847C146.973 384.079 149.581 386.687 152.813 386.687H359.169C362.401 386.687 365.009 384.063 365.009 380.847C365.026 377.615 362.401 375.007 359.186 375.007Z" fill="#6F6F6F"/>
</g>
<defs>
<clipPath id="clip0">
<rect width="512" height="512" fill="white"/>
</clipPath>
</defs>
</svg>
