<svg width="512" height="512" viewBox="0 0 512 512" fill="none" xmlns="http://www.w3.org/2000/svg">
<path d="M504.671 124.682L343.982 50.751H168.018L7.32882 124.682C1.12582 127.536 -1.67118 134.816 1.02682 141.089L33.2438 216.011C35.5958 221.48 41.4568 224.553 47.2928 223.378L108.437 211.058V448.662C108.437 455.613 114.072 461.249 121.024 461.249H391.305C398.256 461.249 403.892 455.614 403.892 448.662V211.179L464.715 223.387C470.548 224.558 476.405 221.484 478.755 216.019L510.975 141.089C513.671 134.816 510.875 127.536 504.671 124.682Z" fill="#61AFF6"/>
<path d="M504.671 124.682L473.277 110.238L445.608 179.161C441.957 188.256 432.185 193.295 422.658 190.997L381.595 181.089C369.176 178.092 357.224 187.503 357.224 200.279V429.388C357.224 437.458 350.682 444 342.612 444H108.437V448.662C108.437 455.613 114.072 461.249 121.024 461.249H391.305C398.255 461.249 403.892 455.614 403.892 448.662V211.178L464.715 223.386C470.548 224.557 476.405 221.483 478.755 216.017L510.975 141.088C513.671 134.816 510.875 127.536 504.671 124.682Z" fill="#55A2F0"/>
<path d="M343.981 50.751H168.017L158.023 55.349C174.38 95.319 212.775 121.12 255.999 121.12C299.223 121.12 337.618 95.318 353.975 55.349L343.981 50.751Z" fill="#55A2F0"/>
<path d="M343.98 50.751H168.02C182.067 85.557 216.163 110.121 256 110.121C295.837 110.121 329.933 85.557 343.98 50.751Z" fill="#2C5871"/>
<path d="M256 110.121C295.837 110.121 329.933 85.557 343.98 50.751H256V110.121Z" fill="#1D4859"/>
</svg>
