<svg width="512" height="512" viewBox="0 0 512 512" fill="none" xmlns="http://www.w3.org/2000/svg">
<path d="M256 512C397.385 512 512 397.385 512 256C512 114.615 397.385 0 256 0C114.615 0 0 114.615 0 256C0 397.385 114.615 512 256 512Z" fill="#2196F3"/>
<path d="M384 308.928C356.384 308.928 330.048 302.912 305.76 291.04C301.952 289.216 297.536 288.928 293.504 290.304C289.472 291.712 286.176 294.656 284.32 298.464L272.8 322.304C238.24 302.464 209.568 273.76 189.696 239.2L213.568 227.68C217.408 225.824 220.32 222.528 221.728 218.496C223.104 214.464 222.848 210.048 220.992 206.24C209.088 181.984 203.072 155.648 203.072 128C203.072 119.168 195.904 112 187.072 112H128C119.168 112 112 119.168 112 128C112 277.984 234.016 400 384 400C392.832 400 400 392.832 400 384V324.928C400 316.096 392.832 308.928 384 308.928Z" fill="#FAFAFA"/>
</svg>
