<svg width="512" height="512" viewBox="0 0 512 512" fill="none" xmlns="http://www.w3.org/2000/svg">
<g clip-path="url(#clip0)">
<path d="M376.94 463.499C375.85 486.45 356.91 504.5 333.94 504.5H198.029C175.059 504.5 156.119 486.45 155.029 463.499C152.079 401.779 150.859 340.058 151.369 278.338C151.609 249.348 152.239 220.348 153.239 191.347C153.249 191.137 153.259 190.927 153.269 190.727C155.359 139.167 196.809 97.9062 248.45 96.2362C260.14 95.8562 271.83 95.8562 283.52 96.2362C335.371 97.9162 376.941 139.497 378.731 191.347C381.87 282.058 381.27 372.779 376.94 463.499Z" fill="#FFEB3B"/>
<path d="M265.992 95.9619C263.359 95.9619 260.726 96.0509 258.094 96.2399C234.744 97.9169 216.036 139.497 215.226 191.343C213.815 282.069 214.082 372.784 216.037 463.51C216.526 486.45 225.046 504.502 235.399 504.502H198.028C175.055 504.502 156.126 486.449 155.026 463.51C150.694 372.784 150.094 282.069 153.238 191.343C155.038 139.498 196.607 97.9179 248.452 96.2399C254.294 96.0509 260.137 95.9619 265.992 95.9619Z" fill="#FFD064"/>
<path d="M258.428 260.264C257.314 269.634 249.582 276.857 240.158 277.32C231.566 277.742 222.976 278.069 214.39 278.298C193.38 278.878 172.369 278.888 151.369 278.338C151.611 249.144 152.248 219.941 153.26 190.736L153.269 190.727C173.919 190.217 194.58 190.257 215.23 190.837C223.544 191.064 231.854 191.385 240.165 191.795C249.587 192.26 257.314 199.482 258.429 208.85C260.466 225.988 260.466 243.126 258.428 260.264Z" fill="#ECECEC"/>
<path d="M215.229 190.837C215.229 191.007 215.219 191.177 215.219 191.347C214.769 220.328 214.489 249.308 214.389 278.298C193.379 278.878 172.368 278.888 151.368 278.338C151.608 249.348 152.238 220.348 153.238 191.347C153.248 191.137 153.258 190.927 153.268 190.727C173.918 190.217 194.579 190.257 215.229 190.837Z" fill="#DADADA"/>
<path d="M321.929 64.3008H210.04C198.831 64.3008 189.745 73.3879 189.745 84.596C189.745 95.8051 198.832 104.891 210.04 104.891H321.93C333.139 104.891 342.225 95.8041 342.225 84.596C342.225 73.3879 333.138 64.3008 321.929 64.3008Z" fill="#ECECEC"/>
<path d="M241.544 98.9488C245.221 102.626 250.298 104.892 255.897 104.892H210.04C204.441 104.892 199.365 102.626 195.688 98.9488C192.022 95.2718 189.745 90.2058 189.745 84.5968C189.745 73.3878 198.832 64.3008 210.041 64.3008H255.898C244.689 64.3008 235.602 73.3878 235.602 84.5968C235.601 90.2068 237.879 95.2718 241.544 98.9488Z" fill="#DADADA"/>
<path d="M298.115 7.5H233.853C220.701 7.5 210.04 18.1611 210.04 31.3133V64.3007H321.929V31.3133C321.928 18.1611 311.267 7.5 298.115 7.5Z" fill="#FFD064"/>
<path d="M268.028 7.49609C254.875 7.49609 244.222 18.1601 244.222 31.3131V64.2951H210.04V31.3131C210.04 18.1601 220.693 7.49609 233.846 7.49609H268.028Z" fill="#FFD064"/>
<path d="M500.172 435.745C498.941 437.485 497.435 449.687 495.694 451.077C434.844 499.472 348.168 499.472 287.317 451.077C285.577 449.687 284.07 437.485 282.839 435.745L366.672 268.949C376.943 248.535 406.089 248.535 416.36 268.96L428.934 293.979C416.636 296.398 407.362 307.231 407.362 320.23C407.362 335.01 419.341 346.989 434.111 346.989C441.029 346.989 447.342 344.368 452.085 340.05L500.172 435.745Z" fill="#FFD064"/>
<path d="M495.695 468.213C434.844 516.596 348.168 516.596 287.318 468.213C278.648 461.315 276.038 449.273 281.015 439.373L282.84 435.744C284.071 437.484 285.577 439.076 287.318 440.466C348.168 488.861 434.844 488.861 495.695 440.466C497.435 439.076 498.942 437.485 500.173 435.744L501.998 439.373C506.973 449.273 504.363 461.315 495.695 468.213Z" fill="#DB5B6F"/>
<path d="M426.024 440.37C440.326 440.37 451.921 428.776 451.921 414.473C451.921 400.171 440.326 388.576 426.024 388.576C411.721 388.576 400.127 400.171 400.127 414.473C400.127 428.776 411.721 440.37 426.024 440.37Z" fill="#FFC250"/>
<path d="M371.439 381.314C380.744 381.314 388.287 373.771 388.287 364.466C388.287 355.161 380.744 347.618 371.439 347.618C362.134 347.618 354.591 355.161 354.591 364.466C354.591 373.771 362.134 381.314 371.439 381.314Z" fill="#FFC250"/>
<path d="M339.059 410.545C339.059 370.186 306.341 306.886 265.981 306.886C225.622 306.886 192.903 370.186 192.903 410.545C192.903 450.904 225.622 483.623 265.981 483.623C306.341 483.623 339.059 450.904 339.059 410.545Z" fill="#ECECEC"/>
<path d="M265.984 483.625C225.626 483.625 192.904 450.91 192.904 410.545C192.904 370.186 225.626 306.888 265.984 306.888C246.431 306.888 230.576 370.187 230.576 410.545C230.576 450.91 246.43 483.625 265.984 483.625Z" fill="#DADADA"/>
<path d="M181.404 410.545C181.404 370.186 148.685 306.886 108.326 306.886C67.9664 306.886 35.248 370.185 35.248 410.545C35.248 450.905 67.9664 483.623 108.326 483.623C148.685 483.623 181.404 450.904 181.404 410.545Z" fill="#ECECEC"/>
<path d="M108.329 483.625C67.9704 483.625 35.249 450.91 35.249 410.545C35.249 370.186 67.9704 306.888 108.329 306.888C88.7757 306.888 72.9205 370.187 72.9205 410.545C72.9205 450.91 88.7747 483.625 108.329 483.625Z" fill="#DADADA"/>
<path d="M344.81 410.543C344.81 411.12 344.81 411.697 344.801 412.274C344.708 420.241 343.954 428.217 342.865 436.184C340.548 453.169 336.666 470.156 334.218 487.15C333.148 494.568 327.247 500.347 319.801 501.194C291.992 504.349 268.733 505.252 243.501 503.874C233.524 503.344 223.23 502.45 212.239 501.203C204.775 500.347 198.809 494.586 197.739 487.149C197.032 482.244 196.213 476.39 195.338 470.145C194.593 464.84 189.986 462.504 185.836 463.128C182.56 463.612 179.563 465.957 178.977 470.145C178.102 476.39 177.274 482.244 176.567 487.149C175.497 494.585 169.531 500.346 162.066 501.203C123.274 505.605 93.3146 505.596 54.5042 501.194C47.0581 500.347 41.158 494.567 40.087 487.15C37.639 470.155 33.7679 453.169 31.4499 436.184C30.3609 428.217 29.6069 420.241 29.5139 412.274C29.5049 411.697 29.5049 411.12 29.5049 410.543H344.81Z" fill="#FFEB3B"/>
<path d="M344.799 412.274C344.706 420.241 343.952 428.217 342.863 436.184H31.4477C30.3587 428.217 29.6047 420.241 29.5117 412.274H344.799Z" fill="#E28424"/>
<path d="M85.7926 503.879C75.8065 503.339 65.5123 502.436 54.5022 501.189C47.0561 500.342 41.1561 494.562 40.0851 487.145C36.409 461.607 29.5029 436.077 29.5029 410.538H65.0103C65.8764 437.203 72.8844 463.868 76.7185 490.523C77.5465 496.275 80.9815 501.143 85.7926 503.879Z" fill="#E28424"/>
<path d="M243.502 503.874C233.524 503.344 223.23 502.45 212.239 501.203C204.775 500.347 198.809 494.586 197.739 487.149C197.032 482.244 196.213 476.39 195.338 470.145C194.593 464.84 189.986 462.504 185.836 463.128C186.283 443.406 187.241 423.554 187.241 410.552H222.747C223.613 437.218 230.621 463.882 234.456 490.537C235.284 496.28 238.709 501.138 243.502 503.874Z" fill="#E28424"/>
<path d="M354.858 422.501H19.4542C12.8511 422.501 7.49707 417.148 7.49707 410.544C7.49707 403.94 12.8501 398.587 19.4542 398.587H354.857C361.46 398.587 366.814 403.94 366.814 410.544C366.814 417.148 361.461 422.501 354.858 422.501Z" fill="#E49542"/>
<path d="M61.739 422.504H19.448C12.849 422.504 7.49805 417.143 7.49805 410.545C7.49805 403.937 12.85 398.585 19.448 398.585H61.739C55.131 398.585 49.779 403.937 49.779 410.545C49.779 417.143 55.131 422.504 61.739 422.504Z" fill="#E28424"/>
<path d="M508.717 436.001L458.796 336.68C457.742 334.583 455.767 333.1 453.46 332.673C451.152 332.246 448.777 332.924 447.043 334.505C443.518 337.718 438.93 339.488 434.126 339.488C423.511 339.488 414.876 330.848 414.876 320.228C414.876 311.052 421.402 303.108 430.395 301.337C432.695 300.884 434.651 299.382 435.682 297.276C436.713 295.171 436.7 292.705 435.648 290.61L423.077 265.587C417.045 253.593 404.956 246.142 391.531 246.141C391.53 246.141 391.529 246.141 391.528 246.141C390.23 246.141 388.951 246.231 387.682 246.368C387.353 227.841 386.876 209.289 386.243 191.088C385.608 172.699 380.201 154.738 370.605 139.146C368.434 135.618 363.814 134.518 360.287 136.69C356.76 138.861 355.66 143.481 357.831 147.008C366.066 160.389 370.707 175.811 371.252 191.608C371.939 211.321 372.443 231.448 372.77 251.507C367.415 254.862 362.962 259.664 359.986 265.579L323.293 338.589C309.087 316.513 289.198 299.388 265.995 299.388C225.522 299.388 195.129 351.478 187.411 391.086H186.926C182.968 370.775 173.047 347.188 158.862 329.019C158.76 314.728 158.758 300.371 158.845 285.985C166.594 286.139 174.361 286.24 182.149 286.24C201.609 286.24 221.148 285.761 240.533 284.807C253.674 284.16 264.339 274.208 265.893 261.143C267.991 243.501 267.991 225.61 265.893 207.967C264.339 194.902 253.675 184.95 240.537 184.304C214.307 183.014 187.745 182.603 161.451 183.061C165.361 152.27 184.44 125.79 212.817 112.39H319.184C326.644 115.912 333.605 120.436 339.884 125.881C341.303 127.112 343.052 127.715 344.794 127.715C346.893 127.715 348.981 126.839 350.464 125.129C353.177 122 352.84 117.263 349.711 114.549C346.332 111.619 342.774 108.928 339.076 106.46C345.562 101.367 349.741 93.4621 349.741 84.595C349.741 71.8668 341.139 61.1177 329.446 57.8357V31.3134C329.443 14.0472 315.396 0 298.129 0H233.867C216.601 0 202.554 14.0472 202.554 31.3134V57.8377C190.86 61.1197 182.258 71.8688 182.258 84.597C182.258 93.4631 186.435 101.366 192.919 106.459C181.596 114.011 171.773 123.702 164.036 135.072C152.771 151.625 146.449 170.996 145.756 191.088C144.349 231.693 143.688 272.738 143.78 313.363C133.282 304.764 121.332 299.389 108.341 299.389C90.1048 299.389 71.6516 310.554 56.3804 330.827C53.8873 334.135 54.5494 338.838 57.8584 341.33C61.1674 343.823 65.8695 343.161 68.3615 339.852C75.5256 330.342 90.2458 314.389 108.342 314.389C122.437 314.389 137.244 324.26 150.037 342.182C160.168 356.374 167.938 374.129 171.62 391.087H45.0562C46.9723 382.286 50.0193 373.167 54.0353 364.29C55.7424 360.516 54.0673 356.073 50.2933 354.365C46.5203 352.658 42.0762 354.333 40.3682 358.107C35.4431 368.994 31.8411 380.266 29.7671 391.086H19.4689C8.73982 391.086 0.0117188 399.814 0.0117188 410.543C0.0117188 421.271 8.74082 430 19.4689 430H23.155C24.4 441.49 26.499 452.941 28.5521 464.075C30.0151 472.01 31.5281 480.215 32.6781 488.211C34.2361 499.008 42.8682 507.409 53.6743 508.642C73.3386 510.877 90.8308 511.995 108.33 511.995C125.803 511.995 143.283 510.881 162.933 508.652C166.519 508.244 169.856 507.04 172.787 505.239C180.441 509.674 189.065 511.998 198.044 511.998H266.005L265.986 511.993C283.49 511.994 300.991 510.877 320.665 508.641C325.876 508.047 330.571 505.774 334.222 502.381C352.778 508.787 372.08 511.936 391.296 511.936C430.381 511.936 469.094 498.953 500.373 474.08C511.747 465.042 515.257 449.028 508.717 436.001ZM217.554 31.3134C217.554 22.3183 224.872 15.0002 233.867 15.0002H298.129C307.124 15.0002 314.442 22.3183 314.442 31.3134V56.8007H217.554V31.3134ZM210.054 71.8008H321.942C328.999 71.8008 334.738 77.5409 334.738 84.596C334.738 91.6521 328.998 97.3921 321.942 97.3921H210.054C202.998 97.3921 197.258 91.6521 197.258 84.596C197.258 77.5409 202.999 71.8008 210.054 71.8008ZM239.798 199.288C245.6 199.573 250.31 203.969 250.996 209.74C252.954 226.208 252.954 242.907 250.996 259.373C250.31 265.144 245.599 269.541 239.794 269.826C212.938 271.148 185.789 271.534 158.968 270.999C159.225 246.674 159.75 222.312 160.542 198.083C186.886 197.599 213.509 197.996 239.798 199.288ZM373.384 272.319C376.906 265.32 383.687 261.142 391.526 261.142H391.528C399.368 261.143 406.152 265.324 409.674 272.325L418.442 289.777C407.293 295.538 399.875 307.185 399.875 320.229C399.875 339.12 415.24 354.489 434.126 354.489C439.415 354.489 444.561 353.281 449.206 351L491.168 434.487C491.123 434.523 491.082 434.563 491.037 434.599C469.941 451.378 444.715 462.601 418.087 467.055C394.082 471.07 369.317 469.538 346.048 462.674C348.018 451.979 349.991 441.009 351.182 430H354.872C365.601 430 374.329 421.272 374.329 410.543C374.329 399.814 365.601 391.086 354.872 391.086H344.576C342.297 379.39 338.042 366.609 332.132 354.399L373.384 272.319ZM224.295 342.184C237.089 324.26 251.899 314.389 265.993 314.389C280.091 314.389 294.9 324.26 307.693 342.184C317.822 356.375 325.592 374.13 329.273 391.088H202.713C206.394 374.132 214.164 356.377 224.295 342.184ZM15.0119 410.545C15.0119 408.087 17.0119 406.088 19.4689 406.088H354.872C357.33 406.088 359.329 408.087 359.329 410.545C359.329 413.002 357.33 415.002 354.872 415.002H19.4689C17.0109 415.001 15.0119 413.002 15.0119 410.545ZM182.609 493.48C183.26 491.806 183.744 490.047 184.008 488.21C184.709 483.293 185.541 477.434 186.411 471.181C186.471 470.758 186.503 470.523 187.168 470.523C187.834 470.523 187.866 470.758 187.925 471.176C188.796 477.435 189.628 483.294 190.33 488.219C190.769 491.268 191.791 494.116 193.254 496.676C189.542 496.179 185.963 495.104 182.609 493.48ZM318.967 493.74C280.882 498.068 251.199 498.071 213.101 493.75C209.018 493.285 205.759 490.133 205.178 486.093C204.479 481.19 203.65 475.349 202.78 469.1C201.66 461.106 195.239 455.523 187.167 455.524C179.095 455.524 172.675 461.107 171.555 469.107C170.686 475.349 169.857 481.191 169.159 486.085C168.577 490.133 165.318 493.285 161.238 493.75C123.133 498.071 93.4498 498.068 55.3714 493.74C51.3363 493.28 48.1093 490.126 47.5243 486.073C46.3323 477.787 44.7922 469.434 43.3022 461.356C41.3992 451.038 39.4582 440.443 38.2482 430.001H336.088C334.876 440.471 332.93 451.095 331.023 461.441C329.539 469.493 328.004 477.819 326.812 486.079C326.228 490.13 323 493.28 318.967 493.74ZM491.037 462.339C449.041 495.735 392.384 505.663 341.513 488.999C341.559 488.739 341.621 488.485 341.659 488.223C342.17 484.684 342.757 481.104 343.373 477.525C359.043 481.987 375.308 484.25 391.602 484.25C401.286 484.25 410.981 483.453 420.562 481.851C448.272 477.216 474.585 465.867 496.966 448.962C497.254 454.011 495.156 459.067 491.037 462.339Z" fill="black"/>
<path d="M398.517 433.393C403.571 440.744 411.185 445.686 419.956 447.31C422.008 447.69 424.065 447.878 426.107 447.878C432.797 447.878 439.326 445.864 444.958 441.992C452.309 436.938 457.251 429.324 458.875 420.553C460.5 411.782 458.61 402.903 453.557 395.552C448.503 388.201 440.889 383.259 432.118 381.635C423.344 380.011 414.468 381.9 407.117 386.953C399.766 392.007 394.824 399.621 393.2 408.392C391.574 417.164 393.463 426.043 398.517 433.393ZM407.948 411.123C408.843 406.291 411.566 402.097 415.615 399.313C418.717 397.18 422.313 396.071 425.998 396.071C427.123 396.071 428.257 396.175 429.386 396.384C434.218 397.279 438.412 400.001 441.197 404.051C443.981 408.1 445.021 412.991 444.127 417.823C443.232 422.655 440.509 426.849 436.46 429.633C432.41 432.417 427.518 433.457 422.689 432.563C417.857 431.668 413.663 428.946 410.878 424.896C408.094 420.846 407.053 415.955 407.948 411.123Z" fill="black"/>
<path d="M367.019 388.407C368.515 388.684 370.015 388.821 371.504 388.821C376.381 388.821 381.141 387.352 385.247 384.53C390.606 380.845 394.209 375.294 395.393 368.9C396.578 362.505 395.2 356.032 391.516 350.672C387.832 345.312 382.28 341.709 375.886 340.525C362.685 338.082 349.956 346.832 347.512 360.033C345.066 373.234 353.818 385.963 367.019 388.407ZM362.26 362.764C363.198 357.696 368.086 354.334 373.154 355.275C375.609 355.73 377.74 357.113 379.155 359.171C380.57 361.229 381.098 363.714 380.644 366.169C380.189 368.624 378.806 370.756 376.748 372.17C374.691 373.585 372.208 374.114 369.75 373.659C364.682 372.719 361.322 367.832 362.26 362.764Z" fill="black"/>
</g>
<defs>
<clipPath id="clip0">
<rect width="512" height="512" fill="white"/>
</clipPath>
</defs>
</svg>
