<svg width="512" height="512" viewBox="0 0 512 512" fill="none" xmlns="http://www.w3.org/2000/svg">
<path d="M384 48.7339C313.308 48.7339 256 106.042 256 176.734C256 106.042 198.692 48.7339 128 48.7339C57.308 48.7339 0 106.042 0 176.734C0 314.158 188.048 429.415 241.805 459.555C250.628 464.502 261.372 464.502 270.195 459.555C323.952 429.416 512 314.158 512 176.734C512 106.042 454.692 48.7339 384 48.7339Z" fill="#FF3500"/>
<path d="M241.805 459.555C250.628 464.502 261.372 464.502 270.195 459.555C309.828 437.333 422.449 368.839 478.895 279.311H478.876C479.435 278.424 479.998 277.537 480.547 276.645C480.549 276.642 480.551 276.639 480.553 276.634H366.455C357.005 276.634 348.155 280.246 341.509 286.571C341.461 286.534 341.416 286.494 341.368 286.457L290.53 235.619C287.716 231.964 283.327 229.846 278.472 230.041C272.252 230.292 267.033 234.292 265.176 240.232L259.212 259.3L203.754 203.995C201.148 200.567 197.091 198.436 192.505 198.34C185.773 198.186 180.099 202.41 178.234 208.818L162.612 262.501C160.19 270.823 152.446 276.635 143.778 276.635H31.4458C31.4478 276.638 31.4498 276.641 31.4518 276.646C33.9798 280.756 36.6288 284.821 39.3828 288.841C39.5118 289.029 39.6398 289.218 39.7688 289.404C40.6608 290.699 41.5608 291.99 42.4738 293.275H43.2798L144.573 395.3C184.437 426.065 222.124 448.521 241.805 459.555Z" fill="url(#paint0_linear)"/>
<path d="M480.554 276.636H366.455C353.968 276.636 342.52 282.933 335.834 293.481L322.775 314.083L292.547 239.137C290.218 233.364 284.724 229.793 278.473 230.045C272.253 230.296 267.034 234.296 265.177 240.236L236.471 332.01L206.322 209.409C204.729 202.929 199.175 198.481 192.504 198.341C185.772 198.187 180.098 202.411 178.233 208.819L162.611 262.502C160.189 270.824 152.445 276.636 143.777 276.636H31.4458C34.9078 282.266 38.5928 287.815 42.4738 293.276H143.777C159.797 293.276 174.111 282.534 178.589 267.151L192.029 220.965L222.104 343.271C223.681 349.685 229.175 354.132 235.775 354.338C235.934 354.342 236.091 354.344 236.249 354.344C242.651 354.344 248.185 350.294 250.109 344.141L279.307 250.795L308.871 324.091C310.921 329.173 315.585 332.638 321.041 333.135C326.496 333.636 331.71 331.065 334.645 326.437L349.89 302.387C353.506 296.68 359.7 293.273 366.456 293.273H469.527C473.407 287.815 477.091 282.266 480.554 276.636Z" fill="white"/>
<defs>
<linearGradient id="paint0_linear" x1="350.882" y1="374.307" x2="74.7669" y2="98.1918" gradientUnits="userSpaceOnUse">
<stop offset="0.0001" stop-color="#D63305" stop-opacity="0"/>
<stop offset="1" stop-color="#B72401"/>
</linearGradient>
</defs>
</svg>
