<svg width="512" height="512" viewBox="0 0 512 512" fill="none" xmlns="http://www.w3.org/2000/svg">
<path d="M442.596 201.632L256.205 25.811L256 26.005L69.8091 200.447L43.7441 240H60.0001V497H256H452V240H467.234L442.596 201.632Z" fill="#009688"/>
<path d="M452 240H467.234L442.596 201.632L256.205 25.811L256 26.005V497H452V240Z" fill="#009688"/>
<path d="M151 210V420H362V210H151Z" fill="#E1E6F0"/>
<path d="M256 210H362V420H256V210Z" fill="#CFD7E6"/>
<path d="M422 180L362 120V60H422V180Z" fill="#576073"/>
<path d="M255.78 0L0 240H0.007L255.788 0.007L255.78 0Z" fill="#F3F5F9"/>
<path d="M512 30H482V0H452V30H422V60H452V90H482V60H512V30Z" fill="#E1E6F0"/>
<path d="M181 240H241V300H181V240Z" fill="#80C0FF"/>
<path d="M271 240H332V300H271V240Z" fill="#6699FF"/>
<path d="M181 330H241V390H181V330Z" fill="#80C0FF"/>
<path d="M271 330H332V390H271V330Z" fill="#6699FF"/>
<path d="M256 0.192L255.795 0L255.788 0.007L0.00683594 240H43.7438L256 41.005L256.205 40.811L467.234 240H512L256 0.192Z" fill="#576073"/>
<path d="M467.234 240H512L256 0.191895V41.0049L256.205 40.8109L467.234 240Z" fill="#576073"/>
<path d="M0 482H512V512H0V482Z" fill="#576073"/>
<path d="M256 482H512V512H256V482Z" fill="#434B59"/>
</svg>
