<svg width="512" height="512" viewBox="0 0 512 512" fill="none" xmlns="http://www.w3.org/2000/svg">
<path d="M295.89 504H140.302C122.802 504 108.616 489.814 108.616 472.314V175.514C108.616 152.18 127.532 133.266 150.864 133.266H285.326C308.66 133.266 327.574 152.182 327.574 175.514V472.314C327.576 489.814 313.39 504 295.89 504Z" fill="#526FAA"/>
<path d="M285.326 133.266H264.202C287.536 133.266 306.45 152.182 306.45 175.514V472.314C306.45 489.814 292.264 504 274.764 504H295.888C313.388 504 327.574 489.814 327.574 472.314V175.514C327.576 152.182 308.66 133.266 285.326 133.266Z" fill="#34518C"/>
<path d="M150.864 133.266H171.988C148.654 133.266 129.74 152.182 129.74 175.514V472.314C129.74 489.814 143.926 504 161.426 504H140.302C122.802 504 108.616 489.814 108.616 472.314V175.514C108.616 152.182 127.532 133.266 150.864 133.266Z" fill="#708DC8"/>
<path d="M229.61 133.266H206.582V33.9681C206.582 27.6081 211.736 22.4541 218.096 22.4541C224.456 22.4541 229.61 27.6081 229.61 33.9681V133.266Z" fill="#F4EFED"/>
<path d="M295.888 508H140.302C120.624 508 104.616 491.992 104.616 472.314V175.514C104.616 150.012 125.362 129.266 150.864 129.266H285.328C310.83 129.266 331.576 150.012 331.576 175.514V472.312C331.576 491.992 315.566 508 295.888 508ZM150.866 137.266C129.776 137.266 112.618 154.424 112.618 175.514V472.312C112.618 487.578 125.038 499.998 140.304 499.998H295.89C311.158 499.998 323.578 487.578 323.578 472.312V175.514C323.578 154.424 306.42 137.266 285.33 137.266H150.866Z" fill="#690589"/>
<path d="M229.612 137.266H206.582C204.372 137.266 202.582 135.474 202.582 133.266V33.9681C202.582 25.4141 209.54 18.4541 218.096 18.4541C226.65 18.4541 233.612 25.4141 233.612 33.9681V133.266C233.612 135.476 231.82 137.266 229.612 137.266ZM210.582 129.266H225.612V33.9681C225.612 29.8241 222.24 26.4541 218.096 26.4541C213.954 26.4541 210.582 29.8261 210.582 33.9681V129.266Z" fill="#690589"/>
<path d="M108.616 245.384H327.574V391.882H108.616V245.384Z" fill="#526FAA"/>
<path d="M306.342 245.384H327.576V391.882H306.342V245.384Z" fill="#526FAA"/>
<path d="M108.616 245.384H129.85V391.882H108.616V245.384Z" fill="#FCE06A"/>
<path d="M327.576 395.882H108.618C106.41 395.882 104.618 394.09 104.618 391.882V245.382C104.618 243.174 106.41 241.382 108.618 241.382H327.578C329.786 241.382 331.578 243.174 331.578 245.382V391.882C331.576 394.092 329.786 395.882 327.576 395.882ZM112.618 387.882H323.578V249.382H112.618V387.882Z" fill="#690589"/>
<path d="M291.016 43.314H178.974C169.222 43.314 161.318 35.408 161.318 25.656C161.318 15.906 169.222 8 178.974 8H291.016C300.768 8 308.672 15.906 308.672 25.658C308.674 35.41 300.768 43.314 291.016 43.314Z" fill="#FCC24C"/>
<path d="M291.016 8H274.028C283.78 8 291.684 15.906 291.684 25.658C291.684 35.41 283.778 43.316 274.028 43.316H291.016C300.768 43.316 308.672 35.41 308.672 25.658C308.674 15.906 300.768 8 291.016 8Z" fill="#DEA42E"/>
<path d="M178.974 43.314H195.962C186.21 43.314 178.304 35.408 178.304 25.656C178.304 15.906 186.21 8 195.962 8H178.974C169.222 8 161.318 15.906 161.318 25.658C161.318 35.41 169.224 43.314 178.974 43.314Z" fill="#FCE06A"/>
<path d="M291.016 47.314H178.974C167.032 47.314 157.318 37.598 157.318 25.656C157.318 13.714 167.034 4 178.974 4H291.016C302.96 4 312.674 13.716 312.674 25.658C312.674 37.6 302.96 47.314 291.016 47.314ZM178.974 12C171.444 12 165.318 18.128 165.318 25.658C165.318 33.188 171.446 39.316 178.974 39.316H291.016C298.548 39.316 304.674 33.19 304.674 25.658C304.674 18.128 298.548 12 291.016 12H178.974Z" fill="#690589"/>
<path d="M240.253 102.088H195.943C189.727 102.088 184.687 107.128 184.687 113.344V133.266H251.509V113.344C251.509 107.126 246.469 102.088 240.253 102.088Z" fill="#526FAA"/>
<path d="M240.252 102.088H229.69C235.906 102.088 240.946 107.128 240.946 113.344V133.266H251.508V113.344C251.508 107.126 246.468 102.088 240.252 102.088Z" fill="#34518C"/>
<path d="M195.943 102.088H206.505C200.289 102.088 195.249 107.128 195.249 113.344V133.266H184.687V113.344C184.685 107.126 189.725 102.088 195.943 102.088Z" fill="#708DC8"/>
<path d="M251.509 137.266H184.687C182.479 137.266 180.687 135.474 180.687 133.266V113.344C180.687 104.93 187.531 98.0879 195.943 98.0879H240.253C248.665 98.0879 255.509 104.932 255.509 113.344V133.266C255.509 135.476 253.717 137.266 251.509 137.266ZM188.687 129.266H247.509V113.344C247.509 109.342 244.253 106.088 240.253 106.088H195.943C191.943 106.088 188.687 109.344 188.687 113.344V129.266Z" fill="#690589"/>
<path d="M129.853 225.85C127.645 225.85 125.853 224.058 125.853 221.85V197.85C125.853 195.642 127.645 193.85 129.853 193.85C132.061 193.85 133.853 195.642 133.853 197.85V221.85C133.853 224.06 132.061 225.85 129.853 225.85Z" fill="#690589"/>
<path d="M336.714 218.636H361.768L357.118 194.036H341.362L336.714 218.636Z" fill="#F4EFED"/>
<path d="M323.431 239.046H375.053L361.769 218.636H336.715L323.431 239.046Z" fill="#FCC24C"/>
<path d="M308.008 370.778H390.474V384.51H308.008V370.778Z" fill="#F4EFED"/>
<path d="M375.052 239.046H323.43L308.008 370.778H390.474L375.052 239.046Z" fill="#526FAA"/>
<path d="M377.494 370.778L362.072 239.046H375.052L390.474 370.778H377.494Z" fill="#34518C"/>
<path d="M390.474 374.778H308.008C306.866 374.778 305.78 374.29 305.02 373.438C304.26 372.584 303.902 371.448 304.036 370.314L319.458 238.58C319.694 236.564 321.402 235.044 323.43 235.044H375.052C377.082 235.044 378.788 236.564 379.024 238.58L394.448 370.314C394.58 371.448 394.224 372.584 393.464 373.438C392.704 374.29 391.618 374.778 390.474 374.778ZM312.504 366.778H385.978L371.492 243.044H326.988L312.504 366.778Z" fill="#690589"/>
<path d="M362.073 239.046L353.559 218.636H361.769L375.053 239.046H362.073Z" fill="#DEA42E"/>
<path d="M353.558 218.636L348.908 194.036H357.118L361.768 218.636H353.558Z" fill="#D6D1CF"/>
<path d="M375.05 243.044H323.428C321.962 243.044 320.612 242.24 319.912 240.952C319.212 239.662 319.276 238.092 320.076 236.864L333.36 216.454C334.096 215.32 335.358 214.636 336.712 214.636H361.766C363.12 214.636 364.382 215.32 365.118 216.454L378.402 236.864C379.202 238.094 379.266 239.662 378.566 240.952C377.868 242.242 376.518 243.044 375.05 243.044ZM330.804 235.044H367.676L359.598 222.634H338.884L330.804 235.044Z" fill="#690589"/>
<path d="M361.768 222.636H336.714C335.522 222.636 334.394 222.106 333.634 221.188C332.874 220.27 332.562 219.062 332.784 217.892L337.434 193.292C337.79 191.404 339.442 190.036 341.364 190.036H357.12C359.042 190.036 360.694 191.404 361.05 193.292L365.698 217.892C365.92 219.062 365.608 220.27 364.848 221.188C364.088 222.106 362.96 222.636 361.768 222.636ZM341.54 214.636H356.942L353.806 198.036H344.68L341.54 214.636Z" fill="#690589"/>
<path d="M390.474 388.51H308.008C305.798 388.51 304.008 386.72 304.008 384.51V370.778C304.008 368.568 305.798 366.778 308.008 366.778H390.474C392.682 366.778 394.474 368.568 394.474 370.778V384.51C394.474 386.718 392.684 388.51 390.474 388.51ZM312.008 380.51H386.474V374.778H312.008V380.51Z" fill="#690589"/>
<path d="M288.1 416.034C282.93 416.034 278.74 411.844 278.74 406.674V297.28L262.208 280.748C260.452 278.994 259.466 276.612 259.466 274.13V209.082C259.466 203.912 263.656 199.722 268.826 199.722C273.996 199.722 278.186 203.912 278.186 209.082V270.254L294.718 286.786C296.474 288.542 297.46 290.922 297.46 293.404V406.674C297.46 411.842 293.27 416.034 288.1 416.034Z" fill="#526FAA"/>
<path d="M278.187 209.082H306.127V270.254H278.187V209.082Z" fill="#F4EFED"/>
<path d="M288.1 420.034C280.732 420.034 274.74 414.04 274.74 406.674V298.938L259.378 283.576C256.892 281.09 255.464 277.648 255.464 274.13V209.08C255.464 201.714 261.458 195.72 268.826 195.72C276.194 195.72 282.186 201.714 282.186 209.08V268.594L297.548 283.956C300.072 286.48 301.46 289.834 301.46 293.402V406.672C301.46 414.04 295.466 420.034 288.1 420.034ZM268.826 203.722C265.868 203.722 263.464 206.126 263.464 209.082V274.13C263.464 275.542 264.036 276.922 265.034 277.92L281.568 294.454C282.318 295.204 282.74 296.222 282.74 297.282V406.676C282.74 409.632 285.144 412.036 288.1 412.036C291.054 412.036 293.46 409.632 293.46 406.676V293.406C293.46 291.994 292.888 290.614 291.89 289.616L275.358 273.082C274.608 272.332 274.186 271.314 274.186 270.254V209.08C274.186 206.126 271.782 203.722 268.826 203.722Z" fill="#690589"/>
<path d="M306.127 274.252H278.187C275.977 274.252 274.187 272.46 274.187 270.252V209.08C274.187 206.872 275.977 205.08 278.187 205.08H306.127C308.337 205.08 310.127 206.872 310.127 209.08V270.252C310.127 272.46 308.335 274.252 306.127 274.252ZM282.187 266.252H302.127V213.08H282.187V266.252Z" fill="#690589"/>
<path d="M306.127 227.376H278.187C275.977 227.376 274.187 225.584 274.187 223.376C274.187 221.168 275.977 219.376 278.187 219.376H306.127C308.337 219.376 310.127 221.168 310.127 223.376C310.127 225.584 308.335 227.376 306.127 227.376Z" fill="#690589"/>
<path d="M306.127 242.654H278.187C275.977 242.654 274.187 240.862 274.187 238.654C274.187 236.446 275.977 234.654 278.187 234.654H306.127C308.337 234.654 310.127 236.446 310.127 238.654C310.127 240.862 308.335 242.654 306.127 242.654Z" fill="#690589"/>
<path d="M306.127 257.93H278.187C275.977 257.93 274.187 256.14 274.187 253.93C274.187 251.722 275.977 249.93 278.187 249.93H306.127C308.337 249.93 310.127 251.722 310.127 253.93C310.127 256.138 308.335 257.93 306.127 257.93Z" fill="#690589"/>
<path d="M243.078 311.732H403.384L382.26 504H264.202L243.078 311.732Z" fill="#526FAA"/>
<path d="M386.484 311.732L365.36 504H382.26L403.384 311.732H386.484Z" fill="#DEA42E"/>
<path d="M259.978 311.732L281.102 504H264.202L243.078 311.732H259.978Z" fill="#FCE06A"/>
<path d="M382.26 508H264.204C262.164 508 260.45 506.464 260.228 504.436L239.102 312.168C238.98 311.038 239.34 309.908 240.1 309.062C240.858 308.216 241.942 307.732 243.078 307.732H403.382C404.518 307.732 405.602 308.216 406.36 309.062C407.12 309.908 407.482 311.038 407.358 312.168L386.234 504.436C386.014 506.464 384.3 508 382.26 508ZM267.788 500H378.676L398.92 315.732H247.54L267.788 500Z" fill="#690589"/>
</svg>
