<svg width="512" height="512" viewBox="0 0 512 512" fill="none" xmlns="http://www.w3.org/2000/svg">
<path d="M455.812 511.66H56.1797C45.7109 511.66 37.2266 503.176 37.2266 492.707V187.117H474.77V492.707C474.77 503.176 466.281 511.66 455.812 511.66Z" fill="#673AB7"/>
<path d="M37.2266 187.117H474.77V250.707H37.2266V187.117Z" fill="#EFB025"/>
<path d="M512 120.824V199.605C512 208.02 505.172 214.836 496.758 214.836H15.2305C6.81641 214.836 0 208.02 0 199.605V120.824C0 112.41 6.81641 105.594 15.2305 105.594H496.758C505.172 105.594 512 112.41 512 120.824Z" fill="#673AB7"/>
<path d="M238.594 141.812C235.27 145.684 232.008 149.609 228.824 153.578C216.961 168.34 206.102 183.809 196.285 199.863C193.266 204.801 190.352 209.789 187.523 214.836H83.6836C89.75 201.07 96.4023 187.559 103.609 174.352C116.68 150.391 131.594 127.398 148.258 105.594C152.238 100.387 156.312 95.2422 160.488 90.1758C162.988 87.1211 165.531 84.1094 168.109 81.1094C177.586 89.2734 187.055 97.4297 196.535 105.594C198.004 106.852 199.473 108.125 200.938 109.387C212.125 119.02 223.312 128.648 234.496 138.293C235.867 139.457 237.227 140.641 238.594 141.812Z" fill="#EFB025"/>
<path d="M393.527 214.836H289.68C286.863 209.789 283.938 204.801 280.918 199.863C271.102 183.809 260.23 168.34 248.379 153.578C245.184 149.609 241.922 145.684 238.594 141.812C239.965 140.641 241.324 139.465 242.695 138.293C253.891 128.648 265.078 119.008 276.262 109.387C277.73 108.125 279.199 106.852 280.668 105.594C290.145 97.4297 299.625 89.2734 309.094 81.1094C311.672 84.1016 314.215 87.1211 316.715 90.168C320.898 95.2422 324.977 100.387 328.945 105.594C345.609 127.398 360.523 150.391 373.602 174.352C380.809 187.559 387.461 201.07 393.527 214.836Z" fill="#EFB025"/>
<path d="M255.992 141.82C252.664 145.688 249.402 149.613 246.219 153.582C234.359 168.344 223.496 183.812 213.68 199.871C182.516 250.812 161.816 307.719 153.086 367.281C139.965 349.879 127.855 331.051 116.961 310.918C97.7969 323.418 79.0664 337.715 61.0312 353.801C70.293 290.621 90.6992 229.895 121.008 174.355C137.195 144.676 156.219 116.477 177.883 90.1797C180.383 87.125 182.926 84.1172 185.504 81.1133C196.449 90.5391 207.387 99.9648 218.336 109.391C229.52 119.023 240.707 128.652 251.895 138.297C253.262 139.461 254.621 140.645 255.992 141.82Z" fill="#FF4440"/>
<path d="M450.961 353.801C432.926 337.715 414.195 323.418 395.031 310.918C384.137 331.051 372.027 349.879 358.906 367.281C350.176 307.719 329.48 250.812 298.312 199.871C288.496 183.812 277.625 168.344 265.773 153.582C262.578 149.613 259.316 145.688 255.992 141.82C257.359 140.645 258.719 139.469 260.09 138.297C271.285 128.652 282.473 119.012 293.66 109.391C304.605 99.9531 315.555 90.5391 326.488 81.1133C329.066 84.1055 331.609 87.125 334.109 90.1719C355.777 116.469 374.801 144.668 390.996 174.355C421.297 229.895 441.699 290.621 450.961 353.801Z" fill="#FF4440"/>
<path d="M215.234 141.82H296.762V214.836H215.234V141.82Z" fill="#FF4440"/>
<path d="M390.996 174.355L298.312 199.871C288.496 183.812 277.625 168.344 265.773 153.582L260.09 138.297L255.992 127.273L293.66 109.391L334.109 90.1719C355.777 116.469 374.801 144.668 390.996 174.355Z" fill="#EA2F2F"/>
<path d="M255.992 127.273L251.895 138.297L246.219 153.582C234.359 168.344 223.496 183.812 213.68 199.871L121.008 174.355C137.195 144.676 156.219 116.477 177.883 90.1797L218.336 109.391L255.992 127.273Z" fill="#EA2F2F"/>
<path d="M403.914 3.54315L255.996 73.7892L284.41 150.207L442.293 106.75C462.941 101.067 474.285 78.9064 466.82 58.8322L453.789 23.7931C446.328 3.71893 423.262 -5.64435 403.914 3.54315Z" fill="#FF4440"/>
<path d="M108.078 3.54315L255.996 73.7892L227.582 150.207L69.7029 106.75C49.0545 101.067 37.7107 78.9064 45.1755 58.8322L58.2029 23.7931C65.6677 3.71893 88.7302 -5.64435 108.078 3.54315Z" fill="#FF4440"/>
<path d="M291.317 104.5C288.629 104.5 285.992 103.172 284.442 100.738C282.016 96.9452 283.121 91.9062 286.914 89.4804C288.035 88.7655 314.676 71.8124 345.262 59.4413C389.356 41.6054 418.801 42.5624 432.77 62.2851C435.375 65.9609 434.504 71.0507 430.828 73.6523C427.152 76.2538 422.067 75.3866 419.465 71.7109C400.527 44.9765 321.789 86.5468 295.699 103.219C294.34 104.086 292.82 104.5 291.317 104.5Z" fill="#EA2F2F"/>
<path d="M219.871 104.5C218.367 104.5 216.848 104.086 215.488 103.219C189.399 86.5468 110.66 44.9765 91.7228 71.7109C89.1174 75.3866 84.0314 76.2538 80.3556 73.6523C76.6838 71.0468 75.8127 65.9609 78.4181 62.2851C92.3869 42.5624 121.828 41.6054 165.926 59.4413C196.512 71.8085 223.153 88.7655 224.274 89.4804C228.067 91.9062 229.172 96.9452 226.75 100.738C225.192 103.172 222.559 104.5 219.871 104.5Z" fill="#EA2F2F"/>
<path d="M279.191 47.5234H232.801C220.105 47.5234 209.812 57.8164 209.812 70.5156V137.91C209.812 150.609 220.105 160.902 232.801 160.902H279.191C291.887 160.902 302.18 150.609 302.18 137.91V70.5156C302.18 57.8164 291.887 47.5234 279.191 47.5234Z" fill="#EA2F2F"/>
<path d="M215.234 214.836H296.762V511.66H215.234V214.836Z" fill="#FF4440"/>
<path d="M215.234 214.836H296.762V250.707H215.234V214.836Z" fill="#EA2F2F"/>
</svg>
