<svg width="512" height="512" viewBox="0 0 512 512" fill="none" xmlns="http://www.w3.org/2000/svg">
<g clip-path="url(#clip0)">
<path d="M256 512C397.385 512 512 397.385 512 256C512 114.615 397.385 0 256 0C114.615 0 0 114.615 0 256C0 397.385 114.615 512 256 512Z" fill="#4C874E"/>
<path d="M256 431C352.65 431 431 352.65 431 256C431 159.35 352.65 81 256 81C159.35 81 81 159.35 81 256C81 352.65 159.35 431 256 431Z" fill="#4CAF50"/>
<path d="M321.264 411.23L256 390.029L190.737 411.23C190.737 411.23 -7.66612 410.666 30.5629 490.734H256H481.437C519.667 410.667 321.264 411.23 321.264 411.23Z" fill="#3E4A68"/>
<path d="M481.437 490.734C475.283 503.384 430.201 515.115 343.277 508.755C256.353 502.395 176.496 484.021 176.496 484.021V469.722C176.496 469.722 339.037 452.926 400.166 453.986C461.296 455.046 487.798 477.66 481.437 490.734Z" fill="#FFAEA1"/>
<path d="M404.023 455.32C404.046 454.928 404.057 454.518 404.062 454.097C402.773 454.054 401.488 454.008 400.167 453.985C339.038 452.925 176.497 469.721 176.497 469.721V484.02C176.497 484.02 222.606 494.628 282.885 502.513C289.29 501.119 295.657 499.713 301.944 498.302C327.035 492.672 348.331 487.519 363.53 483.401C372.034 481.097 378.465 479.169 383.192 477.506C389.158 475.408 403.131 470.492 404.023 455.32Z" fill="#F4958C"/>
<path d="M30.5632 490.734C37.3452 503.064 64.8382 520.769 148.935 506.988C233.032 493.207 382.506 460.081 382.859 454.074C383.212 448.067 369.072 436.671 350.698 436.671C332.324 436.671 329.497 442.015 318.896 442.015C308.295 442.015 294.868 425.364 283.561 427.661C272.254 429.958 265.54 452.926 265.54 452.926C265.54 452.926 158.475 445.859 101.586 449.392C44.6972 452.925 22.7892 476.6 30.5632 490.734Z" fill="#FFCFC2"/>
<path d="M72.9652 490.734C65.1912 476.6 87.0992 452.926 143.988 449.392C149.891 449.025 156.34 448.774 163.147 448.616C140.934 448.223 118.928 448.315 101.586 449.392C44.6972 452.925 22.7892 476.6 30.5632 490.734C36.4072 501.36 57.6392 515.975 117.22 510.992C89.1142 507.904 77.1302 498.307 72.9652 490.734Z" fill="#FFAEA1"/>
<path d="M20.563 417.591C20.563 417.591 20.563 404.517 20.563 401.16C20.563 397.803 25.51 397.45 26.923 401.16C28.336 404.87 27.918 417.959 29.982 421.573V427.661L20.563 417.591Z" fill="#F4958C"/>
<path d="M491.437 417.591C491.437 417.591 491.437 404.517 491.437 401.16C491.437 397.803 486.49 397.45 485.077 401.16C483.664 404.87 484.082 417.959 482.018 421.573V427.661L491.437 417.591Z" fill="#F4958C"/>
<path d="M501.199 408.448C500.404 406.195 496.959 407.123 494.309 410.038C492.457 412.075 485.431 418.51 480.867 422.61C478.638 424.612 475.279 424.66 472.991 422.726C469.797 420.028 470.267 414.966 473.914 412.919C479.105 410.006 485.185 406.037 486.359 402.882C488.479 397.184 483.311 396.522 480.529 398.509C477.746 400.497 442.676 410.17 442.676 410.17L384.479 331.726C384.479 331.726 380.946 218.654 366.811 206.993C352.677 195.332 279.321 182.965 279.321 182.965V157.524H256H232.679V182.965C232.679 182.965 159.323 195.332 145.189 206.993C131.055 218.654 127.521 331.726 127.521 331.726L69.325 410.17C69.325 410.17 34.255 400.497 31.472 398.509C28.689 396.521 23.522 397.184 25.642 402.882C26.816 406.038 32.896 410.006 38.087 412.919C41.733 414.965 42.204 420.027 39.01 422.726C36.721 424.659 33.362 424.612 31.134 422.61C26.571 418.51 19.544 412.074 17.692 410.038C15.042 407.123 11.597 406.195 10.802 408.448C10.007 410.701 21.8 427.661 24.583 431.504C27.366 435.347 39.556 443.297 47.109 441.84C54.662 440.383 80.986 426.072 80.986 426.072C80.986 426.072 156.603 369.183 163.67 349.042C170.737 328.901 176.391 260.952 176.391 260.952H335.611C335.611 260.952 341.265 328.901 348.332 349.042C355.399 369.183 431.016 426.072 431.016 426.072C431.016 426.072 457.341 440.383 464.894 441.84C472.447 443.297 484.637 435.347 487.42 431.504C490.201 427.661 501.994 410.7 501.199 408.448Z" fill="#FFAEA1"/>
<path d="M232.679 182.966C232.679 182.966 268.367 185.793 271.901 157.525H232.679V182.966Z" fill="#F4958C"/>
<path d="M300.661 76.6781C300.661 76.6781 303.136 58.2161 294.246 47.9081C292.914 46.3641 290.384 47.4151 290.546 49.4481L290.651 50.7551C290.651 50.7551 285.549 40.8011 272.418 36.8921C270.595 36.3491 269.062 38.3551 270.032 39.9911L270.631 41.0011C270.631 41.0011 262.716 33.0861 236.483 32.5391C234.556 32.4991 233.602 34.8661 235.009 36.1821L236.512 37.5871C236.511 37.5871 226.634 39.3291 213.548 47.2521C211.933 48.2301 212.336 50.6821 214.176 51.1021L215.247 51.3471C210.182 57.1711 207.382 63.2371 205.954 67.1451C205.334 68.8431 206.997 70.4811 208.685 69.8341C210.373 69.1871 204.666 88.4851 209.535 104.579L256 115.074L302.465 104.578C302.465 104.578 305.281 91.0511 300.661 76.6781Z" fill="#8C4F5C"/>
<path d="M236.994 75.7471C223.304 72.8111 213.564 67.4371 208.686 69.8331C208.686 69.8331 204.667 88.4841 209.536 104.578L238.217 111.057L236.994 75.7471Z" fill="#7B3C47"/>
<path d="M291.459 113.468C291.459 113.468 296.026 102.348 304.167 104.93C312.308 107.511 303.97 131.609 288.083 133.127L291.459 113.468Z" fill="#FFAEA1"/>
<path d="M220.541 113.468C220.541 113.468 215.974 102.348 207.833 104.93C199.692 107.511 208.03 131.609 223.917 133.127L220.541 113.468Z" fill="#F4958C"/>
<path d="M292.597 99.4361C292.132 98.3021 291.756 96.6782 291.4 94.8022L256 84.5352L220.6 94.8022C220.244 96.6782 219.868 98.3021 219.403 99.4361C217.311 104.538 214.683 105.577 214.333 105.696C214.307 106.494 214.291 107.296 214.291 108.106C214.291 138.819 232.965 174.84 256 174.84C279.035 174.84 297.709 138.82 297.709 108.106C297.709 107.296 297.693 106.494 297.667 105.696C297.317 105.577 294.689 104.537 292.597 99.4361Z" fill="#FFCFC2"/>
<path d="M228.634 108.105C228.634 102.382 229.29 96.9662 230.496 91.9312L220.599 94.8012C220.243 96.6772 219.867 98.3012 219.402 99.4352C217.31 104.537 214.682 105.576 214.332 105.695C214.306 106.493 214.29 107.295 214.29 108.105C214.29 138.818 232.964 174.839 255.999 174.839C258.445 174.839 260.84 174.429 263.17 173.667C243.554 167.247 228.634 135.558 228.634 108.105Z" fill="#FFAEA1"/>
<path d="M256 78.9021C241.421 78.9021 235.586 74.2801 230.541 74.2681H230.535C229.602 74.2661 228.695 74.4231 227.766 74.7951C223.044 76.6891 221.963 87.6221 220.599 94.8011H291.4C290.036 87.6221 288.956 76.6891 284.233 74.7951C283.303 74.4221 282.397 74.2661 281.464 74.2681H281.458C276.414 74.2801 270.58 78.9021 256 78.9021Z" fill="white"/>
<path d="M248.05 86.8521C248.05 82.4611 251.609 78.9021 256 78.9021C241.421 78.9021 235.586 74.2801 230.541 74.2681H230.535C229.602 74.2661 228.695 74.4231 227.766 74.7951C223.044 76.6891 221.963 87.6221 220.599 94.8011H256C251.609 94.8021 248.05 91.2421 248.05 86.8521Z" fill="#EBF0F3"/>
<path d="M335.61 260.95L323.272 303.124C321.938 307.684 321.26 312.412 321.26 317.163V411.229H190.74V317.163C190.74 312.411 190.063 307.684 188.728 303.124L176.39 260.95C182.85 260.95 188.08 255.72 188.08 249.26V192.04C198.15 189.64 208.2 187.56 216.2 186V213.2C216.2 235.181 234.019 253 256 253C277.981 253 295.8 235.181 295.8 213.2V186C303.8 187.56 313.85 189.64 323.92 192.04V249.26C323.92 255.72 329.15 260.95 335.61 260.95Z" fill="#3E4A68"/>
<path d="M254.568 307C217.136 307 205.814 301.479 199.021 292.122L176.39 260.95L188.729 303.124C190.063 307.684 190.74 312.412 190.74 317.163V411.23H212V320.529C212 317.761 211.629 315.026 210.941 312.379C242.56 311.579 254.568 307 254.568 307Z" fill="#303A59"/>
</g>
<defs>
<clipPath id="clip0">
<rect width="512" height="512" fill="white"/>
</clipPath>
</defs>
</svg>
