<svg width="512" height="512" viewBox="0 0 512 512" fill="none" xmlns="http://www.w3.org/2000/svg">
<path d="M503.772 198.743V346.461H8.83496V259.588C8.83496 183.324 70.668 121.491 146.932 121.491H426.52C453.096 121.491 476.541 134.91 490.437 155.354C492.747 158.736 494.795 162.32 496.533 166.07C501.177 175.99 503.772 187.063 503.772 198.743Z" fill="#9C27B0"/>
<path d="M181.852 121.487H146.929C70.665 121.487 8.83203 183.32 8.83203 259.584V346.457H43.755V259.584C43.755 183.32 105.588 121.487 181.852 121.487Z" fill="#9C27B0"/>
<path d="M503.769 198.743V251.205H480.336C462.642 251.205 448.294 236.857 448.294 219.151V181.358C448.294 169.951 457.534 160.711 468.941 160.711H493.779C500.137 171.94 503.769 184.92 503.769 198.743Z" fill="#CDEFF7"/>
<path d="M129.813 160.708H395.312C405.752 160.708 414.214 169.17 414.214 179.61V212.453C414.214 222.893 405.752 231.355 395.312 231.355H59.165C59.165 192.338 90.795 160.708 129.813 160.708Z" fill="#CDEFF7"/>
<path d="M503.772 245.848V256.564H480.339C459.716 256.564 442.939 239.787 442.939 219.152V181.36C442.939 167.012 454.596 155.355 468.944 155.355H490.436C492.746 158.737 494.794 162.321 496.532 166.071H468.944C460.514 166.071 453.655 172.929 453.655 181.36V219.153C453.655 233.87 465.622 245.848 480.339 245.848H503.772Z" fill="#9C27B0"/>
<path d="M395.312 155.355H129.81C87.8971 155.355 53.8081 189.445 53.8081 231.357V236.715H395.312C408.695 236.715 419.578 225.832 419.578 212.449V179.61C419.578 166.237 408.695 155.355 395.312 155.355ZM134.144 225.999H64.7381C67.4771 192.493 95.6131 166.071 129.81 166.071H134.144V225.999ZM204.133 225.999H144.86V166.071H204.133V225.999ZM274.122 225.999H214.849V166.071H274.122V225.999ZM344.112 225.999H284.839V166.071H344.112V225.999ZM408.862 212.448C408.862 219.926 402.778 225.998 395.312 225.998H354.828V166.07H395.312C402.778 166.07 408.862 172.143 408.862 179.608V212.448Z" fill="#9C27B0"/>
<path d="M483.527 300.615H475.089C470.157 300.615 466.159 296.617 466.159 291.685C466.159 286.753 470.157 282.755 475.089 282.755H483.527V300.615Z" fill="#FEC95B"/>
<path d="M111.461 390.513C135.792 390.513 155.517 370.788 155.517 346.457C155.517 322.125 135.792 302.401 111.461 302.401C87.1293 302.401 67.4048 322.125 67.4048 346.457C67.4048 370.788 87.1293 390.513 111.461 390.513Z" fill="#515C6D"/>
<path d="M388.763 390.513C413.094 390.513 432.819 370.788 432.819 346.457C432.819 322.125 413.094 302.401 388.763 302.401C364.432 302.401 344.707 322.125 344.707 346.457C344.707 370.788 364.432 390.513 388.763 390.513Z" fill="#515C6D"/>
<path d="M111.461 363.79C121.034 363.79 128.794 356.03 128.794 346.457C128.794 336.884 121.034 329.124 111.461 329.124C101.888 329.124 94.1279 336.884 94.1279 346.457C94.1279 356.03 101.888 363.79 111.461 363.79Z" fill="#D6E0EA"/>
<path d="M388.763 363.79C398.335 363.79 406.096 356.03 406.096 346.457C406.096 336.884 398.335 329.124 388.763 329.124C379.19 329.124 371.43 336.884 371.43 346.457C371.43 356.03 379.19 363.79 388.763 363.79Z" fill="#D6E0EA"/>
<path d="M111.465 369.148C98.9529 369.148 88.7729 358.969 88.7729 346.457C88.7729 333.944 98.9519 323.765 111.465 323.765C123.978 323.765 134.156 333.944 134.156 346.457C134.156 358.969 123.977 369.148 111.465 369.148ZM111.465 334.482C104.861 334.482 99.4889 339.854 99.4889 346.458C99.4889 353.06 104.861 358.433 111.465 358.433C118.067 358.433 123.44 353.061 123.44 346.458C123.44 339.854 118.067 334.482 111.465 334.482Z" fill="#8894A5"/>
<path d="M388.759 369.148C376.247 369.148 366.068 358.969 366.068 346.457C366.068 333.944 376.247 323.765 388.759 323.765C401.271 323.765 411.451 333.944 411.451 346.457C411.45 358.969 401.271 369.148 388.759 369.148ZM388.759 334.482C382.157 334.482 376.784 339.854 376.784 346.458C376.784 353.06 382.156 358.433 388.759 358.433C395.363 358.433 400.735 353.061 400.735 346.458C400.734 339.854 395.362 334.482 388.759 334.482Z" fill="#8894A5"/>
<path d="M503.07 328.001H470.918C465.986 328.001 461.988 324.004 461.988 319.071C461.988 314.138 465.986 310.141 470.918 310.141H503.07C508.002 310.141 512 314.138 512 319.071C512 324.004 508.002 328.001 503.07 328.001Z" fill="#CDEFF7"/>
<path d="M39.885 328.001H8.93C3.998 328.001 0 324.004 0 319.071C0 314.138 3.998 310.141 8.93 310.141H39.885C44.817 310.141 48.815 314.138 48.815 319.071C48.815 324.004 44.817 328.001 39.885 328.001Z" fill="#CDEFF7"/>
</svg>
